<?xml version="1.0" encoding="UTF-8"?>
<!DOCTYPE svg PUBLIC "-//W3C//DTD SVG 1.1//EN" "http://www.w3.org/Graphics/SVG/1.1/DTD/svg11.dtd">
<!-- Creator: CorelDRAW 2020 (64 Bit) -->
<svg xmlns="http://www.w3.org/2000/svg" xml:space="preserve" width="82.017mm" height="17.6649mm" version="1.1" style="shape-rendering:geometricPrecision; text-rendering:geometricPrecision; image-rendering:optimizeQuality; fill-rule:evenodd; clip-rule:evenodd"
viewBox="0 0 6539.69 1408.52"
 xmlns:xlink="http://www.w3.org/1999/xlink">
 <defs>
  <style type="text/css">
   <![CDATA[
    .str0 {stroke:black;stroke-width:6.08;stroke-miterlimit:22.9256}
    .fil2 {fill:black}
    .fil3 {fill:white}
    .fil0 {fill:black;fill-rule:nonzero}
    .fil1 {fill:white;fill-rule:nonzero}
   ]]>
  </style>
 </defs>
 <g id="Camada_x0020_1">
  <polygon class="fil0 str0" points="32.97,1280.12 167.96,74.58 785.46,74.58 770.76,206.1 292.47,206.1 253.77,551.74 732.05,551.74 717.14,684.94 238.85,684.94 172.22,1280.12 "/>
  <path class="fil0 str0" d="M1839.01 905.81c-8.9,79.54 9.48,146.97 54.91,202.05 45.66,55.36 105.36,82.9 178.82,82.9 73.16,0 138.48,-27.54 195.99,-82.9 57.23,-55.08 90.43,-122.51 99.33,-202.05 8.91,-79.51 -9.21,-146.96 -54.08,-202.04 -45.11,-55.34 -104.29,-82.89 -177.45,-82.89 -73.98,0 -139.84,27.54 -197.66,82.89 -57.76,55.08 -90.97,122.53 -99.86,202.04zm-132.62 -0.55c6.2,-55.37 21.87,-107.64 47.04,-156.82 25.39,-48.89 58.96,-92.72 101.23,-131.22 42.24,-38.5 88.38,-67.72 138.65,-87.68 50.29,-19.95 102.48,-30.06 157.08,-30.06 53.24,0 102.6,10.11 148.12,30.35 45.48,20.52 85.3,50.01 119.96,89.07 33.7,37.94 57.53,81.23 71.95,130.38 14.15,49.18 18.17,101.18 12.02,155.97 -6.16,55.07 -21.79,106.78 -46.88,155.39 -25.37,48.62 -58.88,91.89 -101.06,129.56 -43.47,39.62 -90.24,69.69 -140.92,90.76 -50.66,20.8 -102.04,31.2 -154.19,31.2 -54.07,0 -103.95,-10.41 -149.97,-30.91 -46.02,-20.51 -85.56,-50.03 -119.2,-88.51 -33.51,-39.63 -57.28,-83.47 -71.8,-131.8 -14.22,-48.34 -18.27,-100.04 -12.04,-155.68z"/>
  <polygon class="fil0 str0" points="2747.28,632.67 2612.96,632.67 2624.85,526.46 2759.18,526.46 2793.15,222.97 2920.9,222.97 2886.93,526.46 3021.24,526.46 3009.35,632.67 2875.04,632.67 2802.55,1280.12 2674.79,1280.12 "/>
  <path class="fil0 str0" d="M3092.19 1280.12l134.98 -1205.53 275.18 0c78.35,0 135.44,4.51 170.75,13.48 35.55,9.29 66.01,24.74 91.41,46.65 31.56,27.83 54.08,65.48 67.97,112.4 14.11,46.94 17.85,98.92 11.47,155.97 -11.05,98.63 -46.23,173.95 -105.47,225.09 -59.54,51.42 -140.76,77.01 -244.21,77.01l-24.84 0 382.77 574.93 -176.88 0 -363.15 -574.93 -19.65 0 -64.37 574.93 -135.97 0zm257.36 -1084.13l-45.12 402.96 106.18 0c108.93,0 183.43,-14.33 223.53,-43.26 40.07,-28.67 63.99,-78.98 72.05,-150.92 8.64,-77.27 -4.15,-131.22 -38.61,-162.42 -34.49,-30.91 -105.1,-46.36 -211.85,-46.36l-106.18 0z"/>
  <path class="fil0 str0" d="M4557.23 910.86c9.54,-85.14 -5.44,-153.71 -44.7,-205.42 -39.22,-51.97 -95.01,-77.83 -167.63,-77.83 -75.1,0 -136.45,23.88 -183.85,71.67 -47.64,47.76 -76.12,114.37 -85.72,200.07 -10.19,91.04 3.21,161.29 40.04,210.47 36.77,49.47 94.34,74.19 172.15,74.19 74.5,0 135.88,-23.88 183.58,-71.95 47.69,-48.05 76.49,-115.21 86.12,-201.21zm164.24 -384.4l-84.36 753.65 -121.22 0 15.3 -136.56c-35.35,54.79 -77.72,96.66 -126.52,125.32 -48.81,28.94 -101.46,43.29 -158,43.29 -104.81,0 -185.56,-37.1 -241.38,-111.58 -55.82,-74.46 -77.02,-172.82 -63.29,-295.33 13.87,-123.93 56.01,-222.56 126.76,-295.91 70.44,-73.35 158.08,-109.87 262.64,-109.87 61.15,0 112.79,14.05 154.66,42.44 41.86,28.39 73.69,70.81 95.01,126.72l15.92 -142.18 124.48 0z"/>
  <path class="fil0 str0" d="M4887.45 1280.12l84.36 -753.65 122.86 0 -13.02 116.32c36.81,-48.34 78.79,-84.3 125.65,-107.89 46.86,-23.62 99.51,-35.41 157.38,-35.41 86.55,0 151.34,23.59 194.37,70.82 43.3,47.2 60.25,112.95 50.82,196.96l-57.41 512.85 -127.76 0 49.68 -443.71c8.56,-76.43 -0.69,-132.91 -27.65,-170 -27.25,-37.09 -73.21,-55.63 -138.17,-55.63 -37.42,0 -72.32,7.01 -104.47,21.07 -32.16,14.06 -59.74,33.72 -83.12,59.58 -17.47,19.66 -31.22,42.42 -40.56,67.43 -9.67,25.29 -17.85,69.13 -24.86,131.8l-43.61 389.48 -124.48 0z"/>
  <polygon class="fil0 str0" points="5801.73,1280.12 5944.62,3.76 6070.75,3.76 5973.98,868.15 6364.38,526.46 6531.45,526.46 6127.84,871.53 6479.84,1280.12 6304.87,1280.12 5972.39,882.21 5927.84,1280.12 "/>
  <polygon class="fil1 str0" points="3.4,1230.5 137.03,71.14 748.33,71.14 733.76,197.62 260.28,197.62 221.96,530.02 695.43,530.02 680.69,658.12 207.21,658.12 141.24,1230.5 "/>
  <path class="fil1 str0" d="M1791.21 870.53c-8.8,76.47 9.41,141.34 54.37,194.31 45.22,53.24 104.3,79.73 177,79.73 72.43,0 137.11,-26.49 194.04,-79.73 56.64,-52.97 89.51,-117.83 98.32,-194.31 8.83,-76.49 -9.1,-141.33 -53.53,-194.31 -44.68,-53.24 -103.24,-79.73 -175.67,-79.73 -73.23,0 -138.42,26.49 -195.62,79.73 -57.21,52.98 -90.07,117.82 -98.9,194.31zm-131.26 -0.53c6.13,-53.24 21.66,-103.51 46.56,-150.8 25.15,-47.04 58.39,-89.19 100.22,-126.21 41.83,-37.02 87.5,-65.14 137.27,-84.33 49.76,-19.18 101.43,-28.91 155.47,-28.91 52.71,0 101.58,9.73 146.63,29.18 45.03,19.73 84.46,48.1 118.77,85.66 33.35,36.49 56.94,78.13 71.2,125.41 14.02,47.28 17.99,97.29 11.91,149.99 -6.11,52.95 -21.56,102.69 -46.42,149.43 -25.11,46.75 -58.28,88.39 -100,124.58 -43.06,38.11 -89.36,67.03 -139.52,87.29 -50.14,20.01 -101,30.01 -152.63,30.01 -53.51,0 -102.88,-10 -148.44,-29.74 -45.56,-19.73 -84.73,-48.09 -118.03,-85.13 -33.17,-38.09 -56.68,-80.26 -71.04,-126.74 -14.1,-46.48 -18.1,-96.19 -11.94,-149.7z"/>
  <polygon class="fil1 str0" points="2690.32,607.86 2557.36,607.86 2569.13,505.7 2702.1,505.7 2735.73,213.84 2862.21,213.84 2828.58,505.7 2961.55,505.7 2949.77,607.86 2816.8,607.86 2745.04,1230.5 2618.56,1230.5 "/>
  <path class="fil1 str0" d="M3031.77 1230.5l133.62 -1159.36 272.41 0c77.56,0 134.1,4.33 169.05,12.97 35.16,8.92 65.36,23.79 90.49,44.88 31.23,26.75 53.54,62.97 67.26,108.08 14,45.15 17.68,95.12 11.35,150 -10.93,94.85 -45.75,167.29 -104.39,216.47 -58.93,49.44 -139.33,74.06 -241.75,74.06l-24.59 0 378.93 552.91 -175.12 0 -359.47 -552.91 -19.46 0 -63.73 552.91 -134.6 0zm254.76 -1042.61l-44.66 387.54 105.12 0c107.83,0 181.57,-13.79 221.27,-41.63 39.66,-27.56 63.33,-75.94 71.3,-145.11 8.56,-74.33 -4.1,-126.21 -38.2,-156.22 -34.13,-29.73 -104.06,-44.58 -209.71,-44.58l-105.12 0z"/>
  <path class="fil1 str0" d="M4482.04 875.39c9.44,-81.89 -5.38,-147.83 -44.25,-197.55 -38.84,-50 -94.09,-74.86 -165.96,-74.86 -74.33,0 -135.07,22.96 -181.97,68.91 -47.19,45.94 -75.38,109.99 -84.88,192.42 -10.09,87.56 3.2,155.12 39.64,202.43 36.42,47.55 93.38,71.34 170.4,71.34 73.77,0 134.54,-22.96 181.75,-69.18 47.2,-46.21 75.74,-110.81 85.26,-193.5zm162.59 -369.69l-83.54 724.8 -119.98 0 15.15 -131.34c-35,52.71 -76.94,92.96 -125.25,120.54 -48.32,27.83 -100.45,41.62 -156.39,41.62 -103.78,0 -183.7,-35.68 -238.97,-107.28 -55.27,-71.63 -76.24,-166.22 -62.66,-284.03 13.73,-119.18 55.48,-214.03 125.48,-284.57 69.77,-70.53 156.51,-105.67 259.99,-105.67 60.54,0 111.69,13.52 153.12,40.81 41.46,27.29 72.99,68.1 94.07,121.88l15.76 -136.74 123.22 0z"/>
  <path class="fil1 str0" d="M4808.91 1230.5l83.54 -724.8 121.61 0 -12.89 111.89c36.42,-46.49 77.97,-81.07 124.37,-103.78 46.4,-22.69 98.51,-34.05 155.81,-34.05 85.67,0 149.78,22.71 192.39,68.1 42.88,45.4 59.63,108.64 50.33,189.44l-56.84 493.2 -126.47 0 49.18 -426.73c8.46,-73.5 -0.69,-127.82 -27.37,-163.49 -26.97,-35.66 -72.49,-53.51 -136.79,-53.51 -37.02,0 -71.59,6.76 -103.42,20.28 -31.81,13.5 -59.12,32.42 -82.27,57.28 -17.32,18.92 -30.91,40.81 -40.16,64.87 -9.55,24.32 -17.65,66.47 -24.61,126.74l-43.17 374.56 -123.24 0z"/>
  <polygon class="fil1 str0" points="5713.98,1230.5 5855.45,3.04 5980.3,3.04 5884.48,834.32 6270.98,505.7 6436.37,505.7 6036.81,837.55 6385.27,1230.5 6212.05,1230.5 5882.94,847.84 5838.83,1230.5 "/>
  <path class="fil2" d="M1535.32 864.02c14.58,-126.59 -28.43,-242.3 -113.22,-316.69l-39.76 -30.67c-5.2,-3.35 -8.66,-5.25 -14.86,-8.78 -292.75,-166.4 -676.22,113.62 -631.15,449.85 7.32,54.66 35.65,130.26 70.65,168.79 3.35,3.69 4.94,5.21 7.79,9.6l42.59 43.88c5.51,1.92 14.73,10.03 20.24,14.01 86.19,62.25 208.2,82.51 320.75,50.86 23.39,-6.57 37.07,-11.69 58.25,-20.09 38.55,-15.27 109.98,-60.29 140.33,-92.2 41.53,-43.66 55.57,-59.36 86.94,-113.08 23.43,-40.13 45.64,-104.94 51.47,-155.48z"/>
  <path class="fil3" d="M973.34 783.89c-10.33,0.85 -8.03,1.81 -17.48,26.7 -4.34,11.43 -8.58,23.26 -12,35.21 -3.12,10.91 -7.2,25.08 -8.63,36.69 -2.07,16.79 -12.68,62.47 -5.02,76.42 4.45,8.1 32.56,33.86 40.52,41.04 7.17,6.46 14.91,12.38 22.51,18.51 14.59,11.76 32,22.44 48.01,32.62 6.27,3.99 6.28,3.47 14.27,2.49 49.52,-6.08 102.48,-25.8 147.19,-49.89 10.47,-5.65 22.17,-15.65 28.68,-16.36l35.3 -145.88c2.75,-23.84 4.47,-19.22 -24.3,-51.91 -20.3,-23.08 -91.14,-77.54 -114.89,-77.54 -19.43,0 -64.28,21.67 -83.2,29.05 -19.05,7.43 -47.24,22.25 -64.39,34.06 -8.95,6.16 -4.32,-1.28 -6.59,8.81z"/>
  <path class="fil3" d="M1168.11 555.81l-9.66 37.85c-6.15,23.63 -11.24,55.01 -10.69,78.05 0.36,14.75 0.52,27.85 -3.8,40.27 6.37,3.59 12.04,4.8 18.66,9.06 32.37,20.83 52.86,31.54 80.43,62.39 5.21,5.83 9.5,7.4 13.86,13.36 5.25,7.21 5.61,10.42 13.12,15.88 1.11,-8.08 -0.01,-4.82 3.24,-10.28 10.17,7.38 8.39,2.66 34.75,-4.85 14.62,-4.16 25.21,-7.44 38.85,-11.82 12.16,-3.92 23.12,-8.5 36.56,-12.1 11.03,-2.96 29.1,-9.35 40.23,-10.27 1.17,-10.21 2.99,-10.12 4.48,-20.48l7.16 -63.66c0.63,-17.68 1.1,-62.47 -8.28,-73.64 -12.63,-15.06 -30.69,-27.45 -46.37,-39.49 -8.01,-6.15 -15.94,-13.02 -24.69,-18.4 -35.66,-21.94 -13.13,-16.52 -63.76,-16.52 -33.53,0 -64.08,7.72 -94.75,15.99 -9.15,2.46 -22.25,8.09 -29.32,8.67z"/>
  <path class="fil3" d="M1056.67 1059.23c0.33,0.32 0.96,0.26 1.07,0.88l4.51 3.33c2.12,1.48 3.64,2.43 5.81,4 -4.53,8.73 -2.73,-1.12 -8.31,9.19l-17.53 42.89c-8.09,19.93 -13.04,40.77 -20.06,60.93 13.58,1.15 0.53,2.46 17.77,13.55 19.94,12.83 39.94,22.92 62.63,32.28 6.59,2.71 16.61,6.72 23.83,8.17 10.64,2.14 70.73,-15.51 81.01,-18.79 24.83,-7.92 48.58,-18.63 71.01,-31.21 30.2,-16.93 28.93,-11.57 45.25,-60.34 7.09,-21.17 13.33,-36.88 16.08,-60.78 1.13,-9.8 -48.87,-42.86 -54.57,-46.87l-53.53 -22.49c-2.61,0.69 -0.69,-0.12 -3.79,1.08 -7.68,2.97 -38.74,24.34 -84.31,41.59 -20.67,7.83 -65.55,20.82 -86.87,22.58z"/>
  <path class="fil3" d="M749.38 837.31c-8.34,72.39 -10.61,44.53 6.76,89.75 11.02,28.68 36.57,71.28 61,89.01 25.1,-15.6 18.67,-7.63 53.59,-30l26.38 -16.64c9.42,-6.43 16.68,-11.27 25.99,-17.06 5.05,-43.81 -3.09,-37.33 16.66,-106.58 5.81,-20.39 23.15,-62.81 23.79,-66.01 -23.7,-17.2 -39.91,-52.42 -55.68,-77.2 -4.19,-6.59 -14.11,-24.05 -18.55,-27.6 -21.84,13.58 -10.65,5.52 -21.48,10.8 -6.83,3.33 -16.73,10.3 -23.49,15.01 -7.63,5.33 -14.13,9.94 -20.95,15.8l-21.54 17.46c-10.44,9.4 -32.03,27.79 -36.65,39.86 -6.46,16.9 -13.46,42.83 -15.84,63.39z"/>
  <path class="fil2" d="M722.75 1371.54c7.26,13.11 41.25,17.49 60.99,20.85 11.03,1.87 26.36,3.88 37.28,5.26 13.37,1.7 25.91,1.52 39.22,3.52l78.28 5.35c29.26,-0.13 53.34,2 84.07,2 67.89,0 402.76,-0.3 407.22,-39.04 2.27,-19.72 -130.14,-30.47 -158.66,-32.76 -113.17,-9.14 -268.94,-5.62 -380,-0.11 -28.83,1.43 -104.57,9.97 -133.07,16.81 -12.7,3.05 -30.4,5.23 -35.33,18.12z"/>
  <path class="fil3" d="M1438.79 631.84c-1.33,14.37 4.21,47.06 -2.14,81.43 -17.37,94.01 -3.55,29.68 26.54,132.53 3.25,11.13 6.04,20.8 7.15,34.11 3.4,41.02 -6.46,33.43 44.91,33.43 1.64,-14.22 8.18,-35.3 10.27,-53.42 9.82,-85.17 -7.25,-156.31 -43.81,-222.34 -2.7,-4.89 -4.94,-7.68 -7.28,-11.9 -17.87,0 -24.57,3.65 -35.64,6.16z"/>
  <path class="fil3" d="M1013.77 504.45c-1.72,14.88 -0.32,20.58 -1.98,34.93l24.06 1.37c64.13,-3.93 108.66,15.06 119.93,15.06 5.92,0 27.45,-8.48 35.43,-11.05 38.9,-12.54 82.3,-19.77 124.28,-19.77 -2.64,-4.76 -5.05,-8.75 -6.38,-14.55 -1.24,-5.41 -0.65,-4.41 -0.77,-10.36 -0.2,-9.55 5.73,-8.96 -37.39,-19.91 -56.36,-14.31 -122.5,-14.4 -182.09,0.01 -28.1,6.79 -73.4,23.87 -75.1,24.26z"/>
  <path class="fil3" d="M1316.29 1159.91c2.77,5 6.05,10.27 13.2,10.27 8.71,0 52.28,-38.03 60.25,-45.69 5.35,-5.14 7.06,-8 12.82,-13.38 40.52,-37.94 77.16,-101.17 97.85,-151.83 4.49,-10.99 9.89,-34.32 14.36,-41.83l-36.99 0c-29.28,37.31 -61.69,71.23 -92.45,106.85 -58.41,67.65 -17.24,11.07 -53.33,99.96l-15.72 35.65z"/>
  <path class="fil3" d="M773.48 753.07c13.58,-8.44 56.25,-54.55 102.3,-77.19 11.35,-5.58 11.68,-0.15 10.61,-11.16 9.47,3.57 -1.71,0.53 7.75,4.11 3.49,-17.58 86.24,-111.19 115.6,-129.44 1.22,-38.27 4.49,-36.4 -16.23,-25.32 -45.85,24.5 -74.34,43.5 -113.93,80.25 -18.61,17.26 -46.23,51.51 -60.22,71.28 -10.69,15.09 -42.15,68.74 -45.87,87.49z"/>
  <path class="fil3" d="M744.73 913.34c-3.6,31.28 10.7,87.55 20.87,115.78 15.21,42.23 52.11,98 84.72,126.71 4.53,3.99 8.6,11.86 15.25,5.88 5.71,-5.12 -5.24,-15.11 -11.9,-29.17 -5.41,-11.41 -10.25,-21.15 -15.55,-32.12 -16.11,-33.35 -26.51,-76.7 -31.73,-83.94l-58.84 -98.31c-2.08,-4.22 -0.53,-1.8 -2.82,-4.84z"/>
  <path class="fil3" d="M864.96 1167.67c9.6,15.35 71.71,47.69 94.4,56.2 35.2,13.2 80.81,24.39 131.01,24.39 17.4,0 27.3,-2.05 45.44,-2.05 -3.03,-4.91 -20.67,-8.91 -31.19,-12.57 -22.37,-7.77 -54.83,-23.91 -73.13,-37.68 -11.39,-8.56 -5.4,-3.17 -16.92,-3.17 -46.98,0 -89.15,-3.88 -128.09,-27.01 -3.35,-1.99 -8.25,-4.85 -11.95,-5.86l-9.58 7.76z"/>
 </g>
</svg>
